<svg xmlns="http://www.w3.org/2000/svg" width="128" height="128" viewBox="0 0 128 128">
  <!-- Pixel + sign stars (chunky crosses) -->
  <g fill="#bae6fd">
    <!-- plus: 5x5 arm 1px thick in pixel grid — using 2px arms for visibility -->
    <g opacity="0.95">
      <rect x="10" y="14" width="2" height="10"/><rect x="6" y="18" width="10" height="2"/>
    </g>
    <g opacity="0.55">
      <rect x="58" y="8" width="2" height="8"/><rect x="54" y="12" width="10" height="2"/>
    </g>
    <g opacity="0.4">
      <rect x="102" y="22" width="2" height="6"/><rect x="98" y="25" width="10" height="2"/>
    </g>
    <g opacity="0.75">
      <rect x="34" y="44" width="3" height="12"/><rect x="28" y="50" width="15" height="3"/>
    </g>
    <g opacity="0.35">
      <rect x="78" y="52" width="2" height="8"/><rect x="74" y="56" width="10" height="2"/>
    </g>
    <g opacity="0.5">
      <rect x="14" y="72" width="2" height="10"/><rect x="10" y="76" width="10" height="2"/>
    </g>
    <g opacity="0.65">
      <rect x="92" y="68" width="2" height="8"/><rect x="88" y="72" width="10" height="2"/>
    </g>
    <g opacity="0.3">
      <rect x="48" y="88" width="2" height="6"/><rect x="44" y="91" width="10" height="2"/>
    </g>
    <g opacity="0.45">
      <rect x="108" y="96" width="2" height="8"/><rect x="104" y="100" width="10" height="2"/>
    </g>
    <g opacity="0.28">
      <rect x="62" y="108" width="2" height="6"/><rect x="58" y="111" width="10" height="2"/>
    </g>
  </g>
  <g fill="#e9d5ff">
    <g opacity="0.55">
      <rect x="72" y="28" width="2" height="8"/><rect x="68" y="32" width="10" height="2"/>
    </g>
    <g opacity="0.4">
      <rect x="22" y="98" width="2" height="6"/><rect x="18" y="101" width="10" height="2"/>
    </g>
    <g opacity="0.35">
      <rect x="118" y="52" width="2" height="6"/><rect x="114" y="55" width="10" height="2"/>
    </g>
  </g>
  <g fill="#fbcfe8">
    <g opacity="0.45">
      <rect x="44" y="18" width="2" height="6"/><rect x="40" y="21" width="10" height="2"/>
    </g>
    <g opacity="0.38">
      <rect x="6" y="46" width="2" height="6"/><rect x="2" y="49" width="10" height="2"/>
    </g>
  </g>
</svg>
