<svg xmlns="http://www.w3.org/2000/svg" width="120" height="120" viewBox="0 0 120 120">
  <!-- Cute pixel nightlife stars: cyan, lavender, soft pink -->
  <g fill="#7dd3fc">
    <rect x="6" y="14" width="2" height="2" opacity="0.95"/>
    <rect x="8" y="12" width="2" height="6" opacity="0.95"/>
    <rect x="4" y="16" width="10" height="2" opacity="0.95"/>
    <rect x="52" y="6" width="2" height="2" opacity="0.5"/>
    <rect x="54" y="4" width="2" height="6" opacity="0.5"/>
    <rect x="50" y="8" width="10" height="2" opacity="0.5"/>
    <rect x="22" y="44" width="2" height="2" opacity="0.4"/>
    <rect x="24" y="42" width="2" height="6" opacity="0.4"/>
    <rect x="20" y="46" width="10" height="2" opacity="0.4"/>
    <rect x="96" y="82" width="2" height="2" opacity="0.55"/>
    <rect x="98" y="80" width="2" height="6" opacity="0.55"/>
    <rect x="94" y="84" width="10" height="2" opacity="0.55"/>
  </g>
  <g fill="#c4b5fd">
    <rect x="88" y="26" width="3" height="3" opacity="0.75"/>
    <rect x="91" y="23" width="3" height="9" opacity="0.75"/>
    <rect x="85" y="29" width="15" height="3" opacity="0.75"/>
    <rect x="72" y="54" width="2" height="2" opacity="0.45"/>
    <rect x="74" y="52" width="2" height="6" opacity="0.45"/>
    <rect x="70" y="56" width="10" height="2" opacity="0.45"/>
    <rect x="38" y="92" width="2" height="2" opacity="0.35"/>
    <rect x="40" y="90" width="2" height="6" opacity="0.35"/>
    <rect x="36" y="94" width="10" height="2" opacity="0.35"/>
  </g>
  <g fill="#fbcfe8">
    <rect x="60" y="22" width="2" height="2" opacity="0.55"/>
    <rect x="32" y="60" width="2" height="2" opacity="0.4"/>
    <rect x="84" y="96" width="2" height="2" opacity="0.45"/>
    <rect x="12" y="72" width="2" height="2" opacity="0.38"/>
  </g>
</svg>
