<svg xmlns="http://www.w3.org/2000/svg" viewBox="0 0 512 512">
  <defs>
    <linearGradient id="bg" x1="0%" y1="0%" x2="100%" y2="100%">
      <stop offset="0%" stop-color="#0f172a" />
      <stop offset="100%" stop-color="#1e1b4b" />
    </linearGradient>
    <linearGradient id="jam" x1="0%" y1="0%" x2="0%" y2="100%">
      <stop offset="0%" stop-color="#22d3ee" />
      <stop offset="40%" stop-color="#a78bfa" />
      <stop offset="100%" stop-color="#7c3aed" />
    </linearGradient>
    <linearGradient id="lid" x1="0%" y1="0%" x2="100%" y2="0%">
      <stop offset="0%" stop-color="#64748b" />
      <stop offset="50%" stop-color="#94a3b8" />
      <stop offset="100%" stop-color="#475569" />
    </linearGradient>
  </defs>

  <rect x="0" y="0" width="512" height="512" rx="112" fill="url(#bg)" />

  <g transform="translate(64 44) scale(3.84)">
    <rect x="22" y="10" width="56" height="18" rx="5" ry="5" fill="url(#lid)" stroke="#1e3a5f" stroke-width="2" />
    <rect x="28" y="13" width="22" height="4" rx="2" fill="#ffffff" opacity="0.15" />
    <rect x="26" y="28" width="48" height="10" rx="3" ry="3" fill="#334155" stroke="#1e3a5f" stroke-width="2" />
    <rect x="14" y="38" width="72" height="70" rx="18" ry="18" fill="url(#jam)" stroke="#1e3a5f" stroke-width="2" />
    <rect x="22" y="42" width="56" height="7" rx="3" fill="#f472b6" opacity="0.35" />
    <rect x="14" y="38" width="72" height="70" rx="18" ry="18" fill="#ffffff" opacity="0.09" />
    <g fill="#fef3c7" opacity="0.85">
      <rect x="68" y="54" width="2" height="2" />
      <rect x="70" y="52" width="2" height="6" />
      <rect x="66" y="56" width="10" height="2" />
    </g>
    <g fill="#a5f3fc" opacity="0.55">
      <rect x="26" y="88" width="2" height="2" />
      <rect x="28" y="86" width="2" height="6" />
      <rect x="24" y="90" width="10" height="2" />
    </g>
  </g>
</svg>
